<svg width="119" height="47" fill="none" xmlns="http://www.w3.org/2000/svg"><path d="M118.665 3.71c0-1.595-.68-2.312-2.257-2.33-2.634-.018-5.25-.054-7.884.036-.807.036-1.685.34-2.401.734-1.595.914-3.118 1.954-4.659 2.957-10.16 6.63-20.337 13.26-30.497 19.871-.627.412-1.272.77-2.096 1.29V3.745c0-1.666-.663-2.347-2.293-2.347-5.95-.018-11.88-.036-17.829.018-.788 0-1.649.287-2.33.68-3.225 1.882-6.414 3.835-9.603 5.77-7.168 4.3-14.335 8.601-21.502 12.92-.842.501-1.72 1.003-2.777 1.63V.95c-.556.287-.843.412-1.111.591-3.1 1.81-6.128 3.691-9.192 5.501C.693 7.956.012 9.192.03 10.984c.053 5.017.071 10.034 0 15.051-.018 1.649 1.021 2.473 2.454 2.473 3.638-.036 7.293-.018 10.93 0 1.111 0 2.079-.287 3.029-.86 4.031-2.455 8.099-4.856 12.13-7.31.556-.341.896-.305 1.362.16 2.258 2.312 4.57 4.552 6.809 6.863.77.789 1.648 1.13 2.706 1.13h10.84c.322 0 .645-.09 1.147-.162L37.873 14.765c6.307-3.78 12.399-7.436 18.67-11.199v22.415c0 1.667.843 2.527 2.527 2.527 5.698 0 11.414.036 17.112-.036.895-.018 1.917-.287 2.67-.77 8.78-5.645 17.523-11.378 26.285-17.058.287-.18.609-.305 1.093-.556v19.03c.341-.126.556-.18.717-.287 3.333-2.007 6.665-3.996 9.98-6.039 1.237-.753 1.792-1.917 1.792-3.386-.054-5.232-.054-10.465-.054-15.697ZM75.304 40.997c-.108-1.774-1.506-2.724-3.172-2.096-.502.197-.95.537-1.236.698-.77-.322-1.434-.806-2.097-.824-.663-.018-1.326.448-2.007.717-.017-.108-.071-.34-.107-.538h-2.079v6.899h2.276c0-.556-.018-1.004 0-1.452.036-.878.054-1.774.197-2.652.09-.573.52-1.039 1.129-.842.25.072.43.681.448 1.058.054 1.29.018 2.598.018 3.87h2.33c0-.735-.019-1.416 0-2.097.035-.698.053-1.433.214-2.114.144-.573.663-.932 1.237-.735.268.09.483.663.483 1.022.054 1.29.018 2.598.018 3.888h2.33v-4.103c.018-.233.035-.466.018-.7ZM38.93 41.32c.913-1.022.95-2.24.483-3.423-.43-1.093-1.38-1.63-2.526-1.666-1.362-.054-2.742-.018-4.175-.018v9.586h2.293v-3.064c.807-.287 1.255 0 1.577.699.305.68.663 1.326 1.057 1.953.126.197.359.448.556.466.699.054 1.398.018 2.258.018-.77-1.38-1.452-2.634-2.222-4.014.233-.161.501-.322.698-.538Zm-1.792-1.29c-.395.913-1.29.609-2.115.627-.018-.27-.036-.448-.036-.628v-1.756c.771-.143 1.577-.286 2.079.359.25.304.25 1.003.072 1.397ZM101.626 40.227c.752-1.29 1.451-2.599 2.239-4.014-.645 0-1.164.054-1.648-.018-.681-.09-1.004.215-1.272.788-.359.789-.842 1.505-1.183 2.294-.269.627-.627.86-1.362.591v-3.584H96.09v9.551h2.33v-3.78c.77-.27 1.11.017 1.343.608.161.413.412.789.609 1.183 1.075 2.096 1.075 2.096 3.369 2.025.054 0 .089-.036.215-.108-.771-1.433-1.523-2.867-2.347-4.264-.269-.484-.251-.825.018-1.273ZM25.724 38.847c-.824-.108-1.684.125-2.598.233v-2.813h-2.258v9.693c.789-.286 1.649.305 2.276-.501 1.774.842 3.207.698 4.139-.43 1.165-1.452 1.254-3.817.072-5.215-.395-.448-1.058-.878-1.631-.967Zm-1.272 5.25c-.842 0-1.38-.681-1.38-1.72 0-1.004.591-1.72 1.416-1.703.86.018 1.361.663 1.361 1.72 0 1.058-.537 1.72-1.397 1.703ZM54.77 38.74c-.735.035-1.47.394-2.222.627v-3.118H50.29v9.568h2.24c.018-.215.036-.376.036-.555 0-1.022-.018-2.025.018-3.047.035-.878.662-1.45 1.415-1.38.932.072.699.807.699 1.363.018 1.218 0 2.419 0 3.619h2.311c0-1.738.072-3.422-.018-5.124-.071-1.183-1.003-2.007-2.221-1.954ZM15.654 38.704c-2.24 0-3.977 1.612-3.96 3.709.018 2.078 1.703 3.637 3.924 3.637 2.276 0 3.978-1.595 3.96-3.691-.017-2.043-1.738-3.638-3.924-3.655Zm-.018 5.393c-.967 0-1.594-.627-1.612-1.613-.018-1.093.627-1.81 1.613-1.81.95 0 1.612.7 1.612 1.72.018 1.04-.61 1.703-1.612 1.703ZM45.022 38.704c-2.24 0-3.978 1.63-3.942 3.709.018 2.078 1.702 3.62 3.942 3.637 2.24 0 3.924-1.54 3.942-3.62.035-2.06-1.703-3.709-3.942-3.726Zm-.054 5.393c-.95-.018-1.559-.663-1.559-1.666 0-1.075.663-1.774 1.666-1.756.932.018 1.577.734 1.56 1.774 0 1.039-.646 1.666-1.667 1.648ZM89.8 38.954c-1.094-.483-2.15-.322-3.029.556-.054.053-.143.071-.25.107-.054-.25-.09-.484-.144-.663h-2.06v6.88h2.257c0-.537-.018-1.038 0-1.54.036-.806.018-1.595.126-2.383.107-.753.627-1.147 1.415-1.04.77.126.591.771.61 1.273.017 1.236 0 2.472 0 3.69h2.329V41.41c.035-1.057-.215-2.007-1.255-2.455ZM80.23 38.757c-1.271-.215-2.454.126-3.583.842.251.556.502 1.058.753 1.613 2.132-.932 2.723-.86 2.83.215-.895.215-1.791.376-2.669.645-.878.269-1.362.914-1.362 1.863 0 .896.627 1.631 1.541 1.953 1.04.377 1.9-.017 2.688-.662.18.716.734.824 2.186.501 0-1.38.054-2.777-.018-4.175-.054-1.54-.896-2.526-2.365-2.795Zm-1.092 5.483c-.215 0-.61-.412-.574-.555.233-.86.986-.717 1.756-.825-.053.914-.394 1.398-1.182 1.38ZM115.243 41.552c-.143-1.559-.949-2.544-2.419-2.777-1.272-.215-2.436.125-3.565.842.161.323.286.591.412.842.125.251.251.502.358.753 2.079-.95 2.563-.896 2.849.161-1.057.287-2.078.466-3.01.86-1.021.43-1.326 1.577-.806 2.563.734 1.433 2.401 1.63 3.995.447.054.215.108.413.144.538h2.06v-3.727c-.018-.161 0-.34-.018-.502Zm-3.422 2.688c-.233-.036-.663-.466-.627-.573.287-.789 1.003-.717 1.666-.753 0 .896-.376 1.416-1.039 1.326ZM60.897 40.173c-.036-.484-.071-.86-.107-1.237h-2.097v6.899h2.276v-2.15c0-2.097.287-2.437 2.294-2.742v-2.186c-1.147-.143-1.72.627-2.366 1.416ZM105.299 45.799h2.222v-6.88h-2.222v6.88ZM105.299 36.284v1.685h2.186v-1.685h-2.186ZM9.4 40.764c.95-.663 1.255-1.613 1.004-2.67-.269-1.147-1.2-1.72-2.294-1.792-1.469-.107-2.938-.017-4.425-.017v9.622h.806c1.04 0 2.078.035 3.136-.018 1.558-.054 2.866-.914 3.153-2.007.34-1.326-.036-2.168-1.38-3.118Zm-3.404-2.741s2.007 0 2.06.609c.019.107.019.215.019.304v.215c.035 1.29-1.828 1.058-2.061 1.04h-.018v-2.168Zm2.419 4.963v.036c0 .018 0 .053-.018.071v.036c-.018.072-.036.144-.054.197a1.156 1.156 0 0 1-.197.287c-.125.125-.25.215-.412.25-.717.306-1.72.162-1.72.162v-2.401c.197 0 2.311.036 2.383.663.018.143.018.25.018.358.018.108.018.215 0 .34Z" fill="#EEE"/></svg>