<svg width="81" height="31" fill="none" xmlns="http://www.w3.org/2000/svg"><path d="M80.362 1.87c0-1.081-.46-1.567-1.529-1.579-1.784-.012-3.556-.036-5.34.025-.547.024-1.141.23-1.627.497-1.08.62-2.112 1.323-3.156 2.003-6.882 4.49-13.776 8.982-20.658 13.46-.424.28-.861.522-1.42.874V1.893c0-1.128-.449-1.59-1.553-1.59-4.03-.012-8.047-.024-12.077.013-.534 0-1.117.194-1.578.46-2.185 1.275-4.345 2.598-6.506 3.91-4.855 2.912-9.71 5.825-14.564 8.75-.571.34-1.166.68-1.882 1.105V0c-.376.194-.57.28-.752.4-2.1 1.226-4.151 2.5-6.227 3.727C.45 4.746-.012 5.583 0 6.797c.037 3.398.049 6.797 0 10.195-.012 1.117.692 1.675 1.663 1.675 2.464-.024 4.94-.012 7.404 0 .752 0 1.408-.194 2.051-.582 2.731-1.663 5.486-3.29 8.217-4.952.376-.23.607-.207.923.109 1.529 1.566 3.095 3.083 4.612 4.649.522.534 1.116.764 1.833.764h7.343c.218 0 .437-.06.777-.109l-9.189-9.188c4.273-2.561 8.4-5.037 12.648-7.586v15.184c0 1.129.57 1.711 1.711 1.711 3.86 0 7.732.025 11.591-.024.607-.012 1.3-.194 1.809-.522 5.947-3.823 11.87-7.707 17.805-11.555.195-.121.413-.206.74-.376v12.89c.231-.085.377-.121.486-.194 2.258-1.36 4.515-2.707 6.761-4.09.837-.51 1.214-1.3 1.214-2.294-.037-3.545-.037-7.089-.037-10.633ZM50.99 27.127c-.074-1.201-1.02-1.845-2.15-1.42-.339.134-.642.364-.837.474-.522-.219-.97-.547-1.42-.559-.449-.012-.898.304-1.36.486-.011-.073-.048-.23-.072-.364h-1.408v4.672h1.542c0-.376-.012-.68 0-.983.024-.594.036-1.201.133-1.796.06-.388.352-.704.765-.57.17.048.291.46.303.716.037.874.012 1.76.012 2.621h1.578c0-.497-.012-.959 0-1.42.024-.473.037-.97.146-1.432.097-.388.449-.631.837-.497.182.06.328.449.328.691.036.874.012 1.76.012 2.634h1.578V27.6c.012-.157.024-.315.012-.473ZM26.35 27.346c.62-.692.644-1.517.328-2.319-.291-.74-.934-1.104-1.711-1.128-.923-.037-1.857-.012-2.828-.012v6.493h1.553v-2.075c.546-.195.85 0 1.068.473.207.461.45.898.716 1.323.085.134.243.303.377.316.473.036.946.012 1.53.012-.523-.935-.984-1.784-1.506-2.72.158-.108.34-.218.473-.363Zm-1.213-.874c-.267.619-.874.412-1.433.425-.012-.182-.024-.304-.024-.425v-1.19c.522-.097 1.068-.194 1.408.243.17.207.17.68.049.947ZM68.82 26.605c.51-.873.983-1.76 1.517-2.718-.437 0-.789.036-1.117-.012-.46-.061-.68.145-.861.534-.243.534-.57 1.02-.801 1.553-.183.425-.425.583-.923.4v-2.427H65.07v6.469h1.578v-2.56c.522-.183.753.012.91.412.11.28.28.534.413.801.728 1.42.728 1.42 2.282 1.372.036 0 .06-.025.146-.073-.522-.971-1.032-1.942-1.59-2.889-.182-.327-.17-.558.012-.862ZM17.405 25.67c-.558-.072-1.14.086-1.76.158v-1.905h-1.529v6.566c.534-.194 1.117.206 1.542-.34 1.201.57 2.172.474 2.803-.29.79-.984.85-2.586.049-3.533-.267-.303-.716-.595-1.105-.655Zm-.861 3.557c-.57 0-.935-.461-.935-1.165 0-.68.4-1.166.959-1.153.583.012.922.449.922 1.165s-.364 1.165-.946 1.153ZM37.08 25.598c-.497.024-.995.267-1.505.425V23.91h-1.53v6.481h1.518c.012-.145.024-.255.024-.376 0-.692-.012-1.371.012-2.063.025-.595.45-.983.96-.935.63.049.473.546.473.922.012.826 0 1.64 0 2.452h1.565c0-1.177.049-2.318-.012-3.471-.048-.801-.68-1.36-1.505-1.323ZM10.584 25.574c-1.517 0-2.695 1.092-2.683 2.512.013 1.408 1.154 2.464 2.659 2.464 1.541 0 2.694-1.08 2.682-2.5-.012-1.384-1.177-2.464-2.658-2.476Zm-.012 3.653c-.656 0-1.08-.425-1.093-1.092-.012-.74.425-1.226 1.093-1.226.643 0 1.092.473 1.092 1.165.012.704-.413 1.153-1.092 1.153ZM30.477 25.574c-1.517 0-2.694 1.104-2.67 2.512.012 1.408 1.153 2.452 2.67 2.464 1.517 0 2.658-1.044 2.67-2.452.025-1.395-1.153-2.512-2.67-2.524Zm-.036 3.653c-.643-.012-1.056-.449-1.056-1.129 0-.728.449-1.201 1.129-1.19.63.013 1.068.498 1.056 1.202 0 .704-.437 1.13-1.13 1.117ZM60.809 25.744c-.74-.328-1.457-.219-2.051.376-.037.036-.098.048-.17.073-.037-.17-.061-.328-.098-.45h-1.395v4.661h1.529c0-.364-.012-.704 0-1.043.024-.547.012-1.08.085-1.615.073-.51.425-.776.959-.704.522.085.4.522.413.862.012.838 0 1.675 0 2.5h1.577v-2.997c.025-.717-.145-1.36-.85-1.663ZM54.328 25.61c-.862-.145-1.663.085-2.428.57.17.377.34.717.51 1.093 1.444-.631 1.845-.583 1.918.146-.607.145-1.214.255-1.809.436-.595.183-.922.62-.922 1.263 0 .607.425 1.104 1.044 1.323.703.255 1.286-.012 1.82-.45.122.486.498.559 1.48.34 0-.934.037-1.88-.011-2.828-.037-1.043-.607-1.71-1.602-1.893Zm-.74 3.714c-.146 0-.413-.279-.39-.376.159-.583.668-.486 1.19-.558-.036.619-.267.946-.8.934ZM78.045 27.503c-.097-1.056-.644-1.723-1.639-1.88-.862-.147-1.65.084-2.415.57.109.218.194.4.279.57.085.17.17.34.243.51 1.408-.643 1.735-.607 1.93.109-.717.194-1.408.316-2.04.583-.691.29-.898 1.068-.546 1.735.498.971 1.627 1.105 2.707.304.036.145.073.279.097.364h1.396v-2.525c-.012-.109 0-.23-.012-.34Zm-2.319 1.821c-.157-.024-.449-.316-.424-.388.194-.535.68-.486 1.128-.51 0 .607-.255.959-.704.898ZM41.231 26.569c-.024-.328-.048-.583-.073-.838h-1.42v4.673h1.542v-1.456c0-1.42.194-1.651 1.553-1.857V25.61c-.776-.097-1.165.425-1.602.959ZM71.308 30.38h1.505v-4.66h-1.505v4.66ZM71.308 23.935v1.141h1.48v-1.14h-1.48ZM6.347 26.97c.644-.45.85-1.093.68-1.809-.182-.777-.813-1.165-1.553-1.214-.996-.073-1.991-.012-2.998-.012v6.518h.546c.704 0 1.408.024 2.124-.012 1.056-.037 1.942-.62 2.136-1.36.23-.898-.024-1.468-.935-2.112Zm-2.306-1.858s1.36 0 1.396.413c.012.073.012.146.012.206v.146c.025.874-1.238.716-1.396.704h-.012v-1.469Zm1.639 3.363v.024c0 .012 0 .036-.012.048v.025c-.012.048-.025.097-.037.133a.784.784 0 0 1-.133.194.564.564 0 0 1-.28.17c-.485.207-1.165.11-1.165.11v-1.627c.134 0 1.566.024 1.615.45.012.096.012.17.012.242a.733.733 0 0 1 0 .23Z" fill="#EEE"/></svg>