<svg width="111" height="43" fill="none" xmlns="http://www.w3.org/2000/svg"><path d="M110.847 3.395c0-1.489-.636-2.158-2.107-2.175-2.459-.016-4.901-.05-7.36.034-.753.033-1.572.318-2.241.685-1.489.854-2.91 1.824-4.35 2.76a27446.461 27446.461 0 0 1-28.467 18.55c-.585.384-1.188.719-1.957 1.204V3.428c0-1.555-.619-2.191-2.141-2.191-5.553-.017-11.09-.033-16.643.017-.736 0-1.538.267-2.174.635-3.01 1.757-5.988 3.58-8.965 5.386-6.69 4.014-13.381 8.029-20.072 12.06-.786.468-1.605.936-2.592 1.522V.819c-.519.267-.786.385-1.037.552-2.894 1.69-5.72 3.445-8.58 5.135C.72 7.359.085 8.513.102 10.186c.05 4.683.067 9.366 0 14.05-.017 1.538.953 2.308 2.291 2.308 3.396-.034 6.808-.017 10.203 0 1.037 0 1.94-.268 2.827-.803 3.764-2.292 7.56-4.533 11.324-6.824.518-.318.836-.285 1.27.15 2.108 2.158 4.266 4.249 6.357 6.406.72.736 1.539 1.054 2.526 1.054H47.02c.3 0 .602-.084 1.07-.15L35.43 13.714c5.887-3.53 11.574-6.942 17.428-10.454v20.924c0 1.556.787 2.359 2.359 2.359 5.319 0 10.654.033 15.973-.034.837-.016 1.79-.267 2.492-.719C81.877 20.522 90.04 15.17 98.22 9.868c.267-.168.569-.285 1.02-.519v17.763c.318-.117.519-.167.67-.267 3.11-1.873 6.221-3.73 9.316-5.637 1.154-.702 1.672-1.79 1.672-3.161-.05-4.884-.05-9.768-.05-14.652ZM70.37 38.202c-.101-1.656-1.406-2.543-2.961-1.957-.469.184-.887.502-1.154.652-.72-.301-1.338-.753-1.957-.77-.62-.016-1.238.419-1.874.67-.016-.1-.066-.318-.1-.502h-1.94v6.44h2.124c0-.519-.017-.937 0-1.355.033-.82.05-1.656.184-2.476.084-.535.485-.97 1.054-.786.234.067.401.636.418.987.05 1.204.017 2.425.017 3.613h2.174c0-.686-.017-1.322 0-1.957.033-.653.05-1.338.2-1.974.135-.535.62-.87 1.155-.686.25.084.452.62.452.954.05 1.204.016 2.425.016 3.63h2.175v-3.83c.016-.218.033-.436.016-.653ZM36.415 38.503c.853-.953.887-2.09.452-3.195-.401-1.02-1.288-1.522-2.358-1.555-1.272-.05-2.56-.017-3.898-.017v8.949h2.141v-2.86c.753-.268 1.171 0 1.472.652.285.635.62 1.237.987 1.823.117.184.335.418.519.435.652.05 1.304.016 2.107.016-.72-1.287-1.355-2.458-2.074-3.746.217-.15.468-.301.652-.502Zm-1.672-1.204c-.368.853-1.205.568-1.974.585-.017-.25-.033-.418-.033-.585v-1.64c.719-.133 1.472-.267 1.94.335.234.284.234.937.067 1.305ZM94.94 37.483c.703-1.205 1.356-2.426 2.092-3.747-.602 0-1.088.05-1.54-.017-.635-.083-.936.201-1.187.736-.334.736-.786 1.405-1.104 2.141-.25.586-.585.803-1.27.552v-3.345h-2.159v8.915h2.175v-3.53c.72-.25 1.037.017 1.254.57.15.384.385.735.569 1.103 1.004 1.957 1.004 1.957 3.145 1.89.05 0 .083-.033.2-.1-.719-1.338-1.421-2.676-2.19-3.98-.252-.452-.235-.77.016-1.188ZM24.088 36.195c-.769-.1-1.572.117-2.425.217v-2.626h-2.107v9.049c.736-.268 1.538.284 2.124-.468 1.656.786 2.994.652 3.864-.402 1.087-1.355 1.17-3.562.067-4.867-.368-.418-.987-.82-1.523-.903Zm-1.187 4.9c-.786 0-1.288-.635-1.288-1.605 0-.937.552-1.606 1.321-1.59.803.017 1.271.62 1.271 1.607 0 .986-.501 1.605-1.304 1.589ZM51.201 36.094c-.686.034-1.371.368-2.074.586v-2.91h-2.108V42.7h2.091c.017-.2.034-.35.034-.518 0-.954-.017-1.89.017-2.844.033-.82.618-1.355 1.32-1.288.87.067.653.753.653 1.272.017 1.137 0 2.258 0 3.378h2.158c0-1.622.067-3.194-.017-4.783-.067-1.104-.936-1.874-2.074-1.824ZM14.688 36.061c-2.09 0-3.713 1.505-3.697 3.462.017 1.94 1.59 3.396 3.663 3.396 2.125 0 3.714-1.489 3.697-3.446-.017-1.907-1.623-3.395-3.663-3.412Zm-.017 5.035c-.903 0-1.489-.586-1.505-1.506-.017-1.02.585-1.69 1.505-1.69.887 0 1.506.653 1.506 1.607.016.97-.57 1.589-1.506 1.589ZM42.102 36.061c-2.09 0-3.713 1.522-3.68 3.462.017 1.94 1.59 3.38 3.68 3.396 2.09 0 3.663-1.439 3.68-3.379.033-1.923-1.59-3.462-3.68-3.479Zm-.05 5.035c-.886-.017-1.455-.62-1.455-1.556 0-1.004.619-1.656 1.555-1.64.87.018 1.472.687 1.456 1.657 0 .97-.603 1.555-1.556 1.539ZM83.901 36.295c-1.02-.452-2.007-.301-2.826.519-.05.05-.134.066-.234.1-.05-.234-.084-.452-.134-.619h-1.924v6.423h2.108c0-.502-.017-.97 0-1.439.033-.752.016-1.488.117-2.224.1-.703.585-1.07 1.321-.97.72.117.552.719.569 1.187.017 1.154 0 2.309 0 3.446h2.174v-4.132c.034-.986-.2-1.873-1.17-2.291ZM74.97 36.111c-1.188-.2-2.292.117-3.346.786.234.519.469.987.703 1.506 1.99-.87 2.542-.803 2.642.2-.836.201-1.672.352-2.492.603-.82.25-1.27.853-1.27 1.74 0 .836.585 1.521 1.438 1.822.97.352 1.773-.016 2.508-.618.168.669.686.769 2.041.468 0-1.288.05-2.593-.017-3.897-.05-1.439-.836-2.359-2.208-2.61Zm-1.02 5.119c-.202 0-.57-.385-.536-.519.217-.803.92-.669 1.64-.77-.051.854-.369 1.305-1.105 1.288ZM107.653 38.72c-.134-1.455-.887-2.375-2.258-2.592-1.188-.2-2.275.117-3.329.786.151.301.268.552.385.786.117.234.234.468.334.703 1.94-.887 2.392-.837 2.66.15-.987.268-1.941.435-2.81.803-.954.401-1.238 1.472-.753 2.392.686 1.338 2.241 1.522 3.73.418.05.2.1.385.134.502h1.923v-3.48c-.016-.15 0-.317-.016-.468Zm-3.195 2.51c-.218-.034-.619-.435-.586-.536.268-.736.937-.669 1.556-.702 0 .836-.351 1.321-.97 1.237ZM56.922 37.432a51.248 51.248 0 0 0-.1-1.154h-1.958v6.44h2.125v-2.007c0-1.957.267-2.275 2.14-2.56v-2.04c-1.07-.134-1.605.586-2.207 1.322ZM98.37 42.685h2.073v-6.423h-2.074v6.423ZM98.37 33.803v1.572h2.04v-1.572h-2.04ZM8.85 37.984c.887-.618 1.171-1.505.937-2.492-.25-1.07-1.12-1.605-2.141-1.672-1.372-.1-2.743-.017-4.131-.017v8.982h.752c.97 0 1.94.033 2.927-.017 1.456-.05 2.677-.853 2.944-1.873.318-1.238-.033-2.024-1.288-2.91Zm-3.178-2.559s1.874 0 1.924.57c.017.1.017.2.017.283v.201c.033 1.204-1.707.987-1.924.97h-.017v-2.024ZM7.93 40.06v.033c0 .017 0 .05-.016.067v.033c-.017.067-.034.134-.05.184-.05.1-.118.201-.185.268a.777.777 0 0 1-.384.234c-.67.285-1.606.15-1.606.15V38.788c.184 0 2.158.034 2.225.62.016.133.016.233.016.334.017.1.017.2 0 .318Z" fill="#EEE"/></svg>